<?xml version="1.0" encoding="iso-8859-1"?>
<!-- Generator: Adobe Illustrator 19.0.0, SVG Export Plug-In . SVG Version: 6.00 Build 0)  -->
<svg version="1.1" id="Capa_1" xmlns="http://www.w3.org/2000/svg" xmlns:xlink="http://www.w3.org/1999/xlink" x="0px" y="0px"
	 viewBox="0 0 444.082 444.082" style="enable-background:new 0 0 444.082 444.082;" xml:space="preserve">
<linearGradient id="SVGID_1_" gradientUnits="userSpaceOnUse" x1="-24.5803" y1="570.9354" x2="-24.5803" y2="507.9353" gradientTransform="matrix(5.2245 0 0 -5.2245 350.4603 3040.3152)">
	<stop  offset="0" style="stop-color:#00EFD1"/>
	<stop  offset="1" style="stop-color:#00ACEA"/>
</linearGradient>
<path style="fill:url(#SVGID_1_);" d="M375.118,170.841c-5.747-43.886-42.841-76.8-87.771-76.8c-8.359,0-16.718,1.045-25.078,3.657
	c-22.465-25.6-55.38-40.229-89.861-40.229c-66.351,0-120.163,53.812-120.163,120.163c0,0.522,0,1.045,0,1.567
	C19.853,200.098,0,235.624,0,274.286c0,62.171,50.155,112.327,112.327,112.327h219.429c62.171,0,112.327-50.155,112.327-112.327
	C444.082,228.833,416.914,188.082,375.118,170.841z M331.755,355.265H112.327c-44.408,0-80.98-36.571-80.98-80.98
	c0-30.302,16.718-57.992,44.408-72.098c6.269-3.135,9.404-9.927,8.359-16.718c-0.522-2.09-0.522-4.702-0.522-7.837
	c0-49.11,39.706-88.816,88.816-88.816c28.212,0,55.38,13.584,72.098,37.094c4.18,6.269,12.539,8.359,19.331,5.224
	c8.359-3.657,16.196-5.224,24.033-5.224c31.869,0,56.947,25.078,57.469,56.424c0,6.792,4.702,12.539,10.971,14.629
	c33.959,10.971,56.947,42.318,56.947,77.322C412.735,318.694,376.163,355.265,331.755,355.265z"/>
<g>
</g>
<g>
</g>
<g>
</g>
<g>
</g>
<g>
</g>
<g>
</g>
<g>
</g>
<g>
</g>
<g>
</g>
<g>
</g>
<g>
</g>
<g>
</g>
<g>
</g>
<g>
</g>
<g>
</g>
</svg>
