<?xml version="1.0" encoding="iso-8859-1"?>
<!-- Generator: Adobe Illustrator 19.0.0, SVG Export Plug-In . SVG Version: 6.00 Build 0)  -->
<svg version="1.1" id="Capa_1" xmlns="http://www.w3.org/2000/svg" xmlns:xlink="http://www.w3.org/1999/xlink" x="0px" y="0px"
	 viewBox="0 0 488.5 488.5" style="enable-background:new 0 0 488.5 488.5;" xml:space="preserve">
<g>
	<path style="fill:#1185E0;" d="M143.151,291.009c-37.094-8.359-64.261-42.841-64.261-80.98c0-45.976,37.616-83.592,83.592-83.592
		c39.706,0,73.665,27.69,81.502,66.351l-30.824,6.269c-4.702-24.033-26.122-41.273-51.2-41.273
		c-28.735,0-52.245,23.51-52.245,52.245c0,24.033,16.718,45.453,40.229,50.678L143.151,291.009z"/>
	<rect x="146.808" y="47.026" style="fill:#1185E0;" width="31.347" height="53.812"/>
	<rect y="193.834" style="fill:#1185E0;" width="53.812" height="31.347"/>
	
		<rect x="51.126" y="278.654" transform="matrix(-0.7071 -0.7071 0.7071 -0.7071 -102.029 568.8572)" style="fill:#1185E0;" width="31.347" height="53.812"/>
	
		<rect x="242.845" y="86.915" transform="matrix(-0.7071 -0.7071 0.7071 -0.7071 360.835 377.1042)" style="fill:#1185E0;" width="31.347" height="53.812"/>
	
		<rect x="39.522" y="98.15" transform="matrix(-0.7071 -0.7071 0.7071 -0.7071 32.9148 241.2797)" style="fill:#1185E0;" width="53.812" height="31.347"/>
</g>
<path style="fill:#4DCFE0;" d="M388.702,441.475H178.155c-50.155,0-91.429-41.273-91.429-91.429
	c0-31.869,16.718-61.127,43.363-77.845c-1.567-6.269-2.09-12.539-2.09-18.808c0-43.363,35.004-78.367,78.367-78.367
	c9.404,0,18.808,1.567,27.69,5.224c21.42-25.078,53.29-39.706,87.771-39.706c63.739,0,115.461,51.2,117.029,114.416
	c30.824,17.763,50.155,50.678,49.633,86.727C488.49,396.544,443.559,441.475,388.702,441.475z M206.367,206.373
	c-26.122,0-47.02,20.898-47.02,47.02c0,6.792,1.567,13.584,4.18,20.376c1.567,3.657,1.567,8.359,0,12.016
	c-1.567,3.657-4.702,6.792-8.359,8.882c-22.465,9.404-37.616,31.347-37.616,55.38c0,32.914,27.167,60.082,60.082,60.082H388.18
	c37.616,0,68.441-30.824,68.441-68.441c0.522-27.167-15.673-51.722-40.751-63.216c-5.747-2.612-9.404-8.359-9.404-14.106
	c0-1.567,0-3.135,0.522-5.224c0-0.522,0-1.045,0-1.567c0-47.02-38.661-85.682-85.682-85.682c-28.212,0-54.857,13.584-70.008,37.094
	c-4.702,6.792-14.106,8.882-21.42,4.702C223.086,208.985,214.727,206.373,206.367,206.373z"/>
<g>
</g>
<g>
</g>
<g>
</g>
<g>
</g>
<g>
</g>
<g>
</g>
<g>
</g>
<g>
</g>
<g>
</g>
<g>
</g>
<g>
</g>
<g>
</g>
<g>
</g>
<g>
</g>
<g>
</g>
</svg>
