<?xml version="1.0" encoding="utf-8"?>
<!-- Generator: Adobe Illustrator 19.0.0, SVG Export Plug-In . SVG Version: 6.00 Build 0)  -->
<svg xmlns="http://www.w3.org/2000/svg" xmlns:xlink="http://www.w3.org/1999/xlink" version="1.1" id="Layer_1" x="0px" y="0px" viewBox="0 2 98 98" style="enable-background:new 0 2 98 98;" xml:space="preserve" width="512" height="512">
<style type="text/css">
	.st0{fill:url(#SVGID_1_);}
	.st1{fill:url(#SVGID_2_);}
	.st2{fill:url(#SVGID_3_);}
	.st3{fill:url(#SVGID_4_);}
	.st4{fill:url(#SVGID_5_);}
	.st5{fill:url(#SVGID_6_);}
	.st6{fill:url(#SVGID_7_);}
	.st7{fill:url(#SVGID_8_);}
	.st8{fill:url(#SVGID_9_);}
</style>
<g>
	
		<linearGradient id="SVGID_1_" gradientUnits="userSpaceOnUse" x1="49" y1="94" x2="49" y2="10.3695" gradientTransform="matrix(1 0 0 -1 0 104)">
		<stop offset="0" style="stop-color:#00EFD1"/>
		<stop offset="1" style="stop-color:#00ACEA"/>
	</linearGradient>
	<path class="st0" d="M49,36.6c-9,0-16.4,7.4-16.4,16.4S40,69.4,49,69.4S65.4,62,65.4,53S58,36.6,49,36.6z M49,63.4   c-5.7,0-10.4-4.7-10.4-10.4S43.3,42.6,49,42.6S59.4,47.3,59.4,53S54.7,63.4,49,63.4z"/>
	
		<linearGradient id="SVGID_2_" gradientUnits="userSpaceOnUse" x1="72.65" y1="94" x2="72.65" y2="10.3695" gradientTransform="matrix(1 0 0 -1 0 104)">
		<stop offset="0" style="stop-color:#00EFD1"/>
		<stop offset="1" style="stop-color:#00ACEA"/>
	</linearGradient>
	<path class="st1" d="M70.3,34.7c0.8,0,1.5-0.3,2.1-0.9l4.7-4.7c1.2-1.2,1.2-3.1,0-4.2c-1.2-1.2-3.1-1.2-4.2,0l-4.7,4.7   c-1.2,1.2-1.2,3.1,0,4.2C68.8,34.4,69.5,34.7,70.3,34.7z"/>
	
		<linearGradient id="SVGID_3_" gradientUnits="userSpaceOnUse" x1="25.35" y1="94" x2="25.35" y2="10.3695" gradientTransform="matrix(1 0 0 -1 0 104)">
		<stop offset="0" style="stop-color:#00EFD1"/>
		<stop offset="1" style="stop-color:#00ACEA"/>
	</linearGradient>
	<path class="st2" d="M25.6,72.2l-4.7,4.7c-1.2,1.2-1.2,3.1,0,4.2c0.6,0.6,1.4,0.9,2.1,0.9s1.5-0.3,2.1-0.9l4.7-4.7   c1.2-1.2,1.2-3.1,0-4.2C28.7,71,26.8,71,25.6,72.2z"/>
	
		<linearGradient id="SVGID_4_" gradientUnits="userSpaceOnUse" x1="49" y1="94" x2="49" y2="10.3695" gradientTransform="matrix(1 0 0 -1 0 104)">
		<stop offset="0" style="stop-color:#00EFD1"/>
		<stop offset="1" style="stop-color:#00ACEA"/>
	</linearGradient>
	<path class="st3" d="M49,25.9c1.7,0,3-1.3,3-3v-6.7c0-1.7-1.3-3-3-3s-3,1.3-3,3v6.7C46,24.6,47.3,25.9,49,25.9z"/>
	
		<linearGradient id="SVGID_5_" gradientUnits="userSpaceOnUse" x1="49" y1="94" x2="49" y2="10.3695" gradientTransform="matrix(1 0 0 -1 0 104)">
		<stop offset="0" style="stop-color:#00EFD1"/>
		<stop offset="1" style="stop-color:#00ACEA"/>
	</linearGradient>
	<path class="st4" d="M49,80.1c-1.7,0-3,1.3-3,3v6.7c0,1.7,1.3,3,3,3s3-1.3,3-3v-6.7C52,81.4,50.7,80.1,49,80.1z"/>
	
		<linearGradient id="SVGID_6_" gradientUnits="userSpaceOnUse" x1="25.35" y1="94" x2="25.35" y2="10.3695" gradientTransform="matrix(1 0 0 -1 0 104)">
		<stop offset="0" style="stop-color:#00EFD1"/>
		<stop offset="1" style="stop-color:#00ACEA"/>
	</linearGradient>
	<path class="st5" d="M25.1,24.9c-1.2-1.2-3.1-1.2-4.2,0c-1.2,1.2-1.2,3.1,0,4.2l4.7,4.7c0.6,0.6,1.4,0.9,2.1,0.9s1.5-0.3,2.1-0.9   c1.2-1.2,1.2-3.1,0-4.2L25.1,24.9z"/>
	
		<linearGradient id="SVGID_7_" gradientUnits="userSpaceOnUse" x1="72.65" y1="94" x2="72.65" y2="10.3695" gradientTransform="matrix(1 0 0 -1 0 104)">
		<stop offset="0" style="stop-color:#00EFD1"/>
		<stop offset="1" style="stop-color:#00ACEA"/>
	</linearGradient>
	<path class="st6" d="M72.4,72.2c-1.2-1.2-3.1-1.2-4.2,0c-1.2,1.2-1.2,3.1,0,4.2l4.7,4.7c0.6,0.6,1.4,0.9,2.1,0.9s1.5-0.3,2.1-0.9   c1.2-1.2,1.2-3.1,0-4.2L72.4,72.2z"/>
	
		<linearGradient id="SVGID_8_" gradientUnits="userSpaceOnUse" x1="15.55" y1="94" x2="15.55" y2="10.3695" gradientTransform="matrix(1 0 0 -1 0 104)">
		<stop offset="0" style="stop-color:#00EFD1"/>
		<stop offset="1" style="stop-color:#00ACEA"/>
	</linearGradient>
	<path class="st7" d="M21.9,53c0-1.7-1.3-3-3-3h-6.7c-1.7,0-3,1.3-3,3s1.3,3,3,3h6.7C20.6,56,21.9,54.7,21.9,53z"/>
	
		<linearGradient id="SVGID_9_" gradientUnits="userSpaceOnUse" x1="82.45" y1="94" x2="82.45" y2="10.3695" gradientTransform="matrix(1 0 0 -1 0 104)">
		<stop offset="0" style="stop-color:#00EFD1"/>
		<stop offset="1" style="stop-color:#00ACEA"/>
	</linearGradient>
	<path class="st8" d="M85.8,50h-6.7c-1.7,0-3,1.3-3,3s1.3,3,3,3h6.7c1.7,0,3-1.3,3-3S87.5,50,85.8,50z"/>
</g>
</svg>
